<?xml version="1.0" encoding="UTF-8"?>
<svg width="255px" height="256px" viewBox="0 0 255 256" version="1.1" xmlns="http://www.w3.org/2000/svg" xmlns:xlink="http://www.w3.org/1999/xlink">
    <title>szamlazzhu_logo_256x256</title>
    <g id="Page-1" stroke="none" stroke-width="1" fill="none" fill-rule="evenodd">
        <g id="szamlazzhu_logo_256x256" fill-rule="nonzero">
            <rect id="Rectangle" fill="#FF6630" x="0" y="0" width="255" height="256"></rect>
            <g id="Group" transform="translate(24.030390, 177.953046)" fill="#FFFFFF">
                <path d="M14.6266096,18.3089543 C14.1316096,17.7899543 13.4716096,17.3329543 12.6436096,16.9379543 C11.8156096,16.5429543 10.8096096,16.1849543 9.62260962,15.8629543 C8.70860962,15.6159543 7.98560962,15.3939543 7.45460962,15.1959543 C6.92360962,14.9989543 6.52160962,14.8249543 6.25060962,14.6769543 C6.00260962,14.5049543 5.81160962,14.2939543 5.67660962,14.0469543 C5.54060962,13.7999543 5.47260962,13.5409543 5.47260962,13.2689543 C5.47260962,12.9969543 5.52860962,12.7499543 5.63960962,12.5279543 C5.75060962,12.3059543 5.91760962,12.1149543 6.13960962,11.9539543 C6.36260962,11.7929543 6.63960962,11.6759543 6.97360962,11.6019543 C7.30760962,11.5279543 7.68360962,11.4909543 8.10460962,11.4909543 C8.57360962,11.4909543 9.10560962,11.5899543 9.69760962,11.7869543 C10.2906096,11.9849543 10.8656096,12.2569543 11.4206096,12.6029543 C11.7956096,12.8369543 12.1446096,13.0859543 12.4686096,13.3529543 C12.7316096,13.5689543 13.1166096,13.5369543 13.3446096,13.2859543 L15.3116096,11.1109543 C15.5536096,10.8439543 15.5306096,10.4279543 15.2576096,10.1929543 C14.7546096,9.75995426 14.1916096,9.37095426 13.5706096,9.02695426 C12.7426096,8.56995426 11.8476096,8.21795426 10.8836096,7.97095426 C9.91960962,7.72395426 8.93060962,7.59995426 7.91860962,7.59995426 C6.90660962,7.59995426 5.94160962,7.74195426 5.02760962,8.02595426 C4.11260962,8.30995426 3.30460962,8.71195426 2.59960962,9.23095426 C1.89560962,9.74995426 1.34560962,10.3739543 0.950609616,11.1029543 C0.554609616,11.8319543 0.357609616,12.6409543 0.357609616,13.5309543 C0.357609616,14.2729543 0.474609616,14.9459543 0.709609616,15.5509543 C0.944609616,16.1569543 1.28360962,16.7179543 1.72960962,17.2369543 C2.24860962,17.7809543 2.94560962,18.2689543 3.82360962,18.7009543 C4.70060962,19.1329543 5.76960962,19.5099543 7.02960962,19.8319543 C7.84460962,20.0549543 8.51260962,20.2579543 9.03160962,20.4439543 C9.55060962,20.6299543 9.93360962,20.7959543 10.1806096,20.9439543 C10.6256096,21.2409543 10.8476096,21.6609543 10.8476096,22.2039543 C10.8476096,22.4759543 10.7926096,22.7289543 10.6806096,22.9639543 C10.5696096,23.1989543 10.4026096,23.3959543 10.1806096,23.5569543 C9.95860962,23.7179543 9.69260962,23.8409543 9.38360962,23.9279543 C9.07460962,24.0149543 8.73460962,24.0579543 8.36360962,24.0579543 C7.42460962,24.0579543 6.48560962,23.8789543 5.54660962,23.5199543 C4.77260962,23.2249543 4.06560962,22.7749543 3.42660962,22.1689543 C3.18960962,21.9439543 2.82160962,21.9339543 2.57260962,22.1469543 L0.226609616,24.1509543 C-0.0533903843,24.3899543 -0.0783903843,24.8189543 0.176609616,25.0829543 C0.975609616,25.9079543 1.96860962,26.5729543 3.15560962,27.0789543 C4.57660962,27.6839543 6.20060962,27.9869543 8.02960962,27.9869543 C9.51260962,27.9869543 10.8466096,27.7149543 12.0326096,27.1709543 C13.2186096,26.6279543 14.1516096,25.8869543 14.8306096,24.9469543 C15.5096096,24.0079543 15.8506096,22.9339543 15.8506096,21.7229543 C15.8506096,21.0319543 15.7516096,20.4009543 15.5536096,19.8329543 C15.3556096,19.2649543 15.0466096,18.7579543 14.6276096,18.3139543 L14.6276096,18.3139543 L14.6266096,18.3089543 Z" id="Path"></path>
                <path d="M33.5456096,23.2749543 L24.6576096,23.2749543 L33.5596096,11.5069543 C33.6046096,11.4469543 33.6286096,11.3749543 33.6286096,11.3009543 L33.6286096,8.34795426 C33.6286096,8.15895426 33.4756096,8.00595426 33.2866096,8.00595426 L18.3306096,8.00595426 C18.1416096,8.00595426 17.9886096,8.15895426 17.9886096,8.34795426 L17.9886096,12.0009543 C17.9886096,12.1899543 18.1416096,12.3429543 18.3306096,12.3429543 L27.1866096,12.3429543 L18.0596096,24.1849543 C18.0136096,24.2449543 17.9886096,24.3179543 17.9886096,24.3939543 L17.9886096,27.2709543 C17.9886096,27.4599543 18.1416096,27.6129543 18.3306096,27.6129543 L33.5466096,27.6129543 C33.7356096,27.6129543 33.8886096,27.4599543 33.8886096,27.2709543 L33.8886096,23.6179543 C33.8886096,23.4289543 33.7356096,23.2759543 33.5466096,23.2759543 L33.5466096,23.2759543 L33.5456096,23.2749543 Z" id="Path"></path>
                <path d="M55.3026096,8.00595426 L51.3586096,8.00595426 C51.0046096,8.00595426 50.7166096,8.29295426 50.7166096,8.64695426 L50.7166096,10.5839543 C50.3406096,10.0699543 49.9056096,9.60395426 49.4016096,9.19195426 C48.7956096,8.69795426 48.0916096,8.30895426 47.2886096,8.02495426 C46.4856096,7.74095426 45.6026096,7.59895426 44.6386096,7.59895426 C42.9346096,7.59895426 41.4146096,8.03095426 40.0796096,8.89595426 C38.7456096,9.76095426 37.6896096,10.9589543 36.9106096,12.4909543 C36.1326096,14.0229543 35.7436096,15.7769543 35.7436096,17.7539543 C35.7436096,19.7309543 36.1256096,21.4849543 36.8926096,23.0169543 C37.6576096,24.5489543 38.6956096,25.7599543 40.0056096,26.6489543 C41.3156096,27.5389543 42.7856096,27.9829543 44.4166096,27.9829543 C45.3306096,27.9829543 46.1956096,27.8409543 47.0116096,27.5569543 C47.8266096,27.2729543 48.5616096,26.8899543 49.2166096,26.4079543 C49.7686096,26.0019543 50.2406096,25.5449543 50.6436096,25.0419543 L50.6436096,26.9709543 C50.6436096,27.3249543 50.9306096,27.6119543 51.2856096,27.6119543 L55.3036096,27.6119543 C55.6576096,27.6119543 55.9446096,27.3249543 55.9446096,26.9709543 L55.9446096,8.64695426 C55.9446096,8.29295426 55.6576096,8.00595426 55.3036096,8.00595426 L55.3036096,8.00595426 L55.3026096,8.00595426 Z M50.1806096,20.7369543 C49.7726096,21.5889543 49.1986096,22.2509543 48.4576096,22.7199543 C47.7156096,23.1899543 46.8516096,23.4239543 45.8626096,23.4239543 C44.8996096,23.4239543 44.0526096,23.1889543 43.3236096,22.7199543 C42.5946096,22.2509543 42.0206096,21.5889543 41.6006096,20.7369543 C41.1796096,19.8849543 40.9706096,18.8899543 40.9706096,17.7539543 C40.9706096,16.6419543 41.1796096,15.6659543 41.6006096,14.8259543 C42.0206096,13.9859543 42.5946096,13.3249543 43.3236096,12.8429543 C44.0516096,12.3609543 44.8986096,12.1199543 45.8626096,12.1199543 C46.8506096,12.1199543 47.7156096,12.3609543 48.4576096,12.8429543 C49.1996096,13.3249543 49.7726096,13.9859543 50.1806096,14.8259543 C50.5886096,15.6659543 50.7926096,16.6419543 50.7926096,17.7539543 C50.7926096,18.8909543 50.5886096,19.8849543 50.1806096,20.7369543 Z" id="Shape"></path>
                <path d="M86.6866096,8.54295426 C85.6736096,7.93795426 84.4016096,7.63495426 82.8686096,7.63495426 C82.2256096,7.63495426 81.5716096,7.73395426 80.9046096,7.93095426 C80.2366096,8.12895426 79.5936096,8.40095426 78.9776096,8.74695426 C78.3596096,9.09295426 77.8036096,9.51295426 77.3096096,10.0069543 C76.9126096,10.4039543 76.5746096,10.8339543 76.2896096,11.2939543 C76.0186096,10.6369543 75.6916096,10.0779543 75.3086096,9.61795426 C74.7396096,8.93895426 74.0486096,8.43795426 73.2326096,8.11695426 C72.4176096,7.79595426 71.5026096,7.63495426 70.4896096,7.63495426 C69.8226096,7.63495426 69.1546096,7.73995426 68.4876096,7.94995426 C67.8206096,8.15995426 67.1906096,8.44995426 66.5976096,8.82095426 C66.0056096,9.19195426 65.4796096,9.63695426 65.0226096,10.1549543 C64.8986096,10.2949543 64.7836096,10.4409543 64.6736096,10.5909543 L64.6146096,8.62795426 C64.6046096,8.28195426 64.3206096,8.00595426 63.9736096,8.00595426 L60.1596096,8.00595426 C59.8056096,8.00595426 59.5186096,8.29295426 59.5186096,8.64695426 L59.5186096,26.9709543 C59.5186096,27.3249543 59.8056096,27.6119543 60.1596096,27.6119543 L64.1776096,27.6119543 C64.5316096,27.6119543 64.8196096,27.3249543 64.8196096,26.9709543 L64.8196096,15.8629543 C64.8196096,15.3439543 64.9176096,14.8619543 65.1166096,14.4179543 C65.3136096,13.9729543 65.5856096,13.5839543 65.9316096,13.2509543 C66.2766096,12.9169543 66.6916096,12.6579543 67.1726096,12.4729543 C67.6546096,12.2879543 68.1796096,12.1949543 68.7476096,12.1949543 C69.4386096,12.1949543 70.0196096,12.3429543 70.4896096,12.6399543 C70.9586096,12.9369543 71.3176096,13.3749543 71.5646096,13.9559543 C71.8116096,14.5369543 71.9346096,15.2349543 71.9346096,16.0499543 L71.9346096,26.9719543 C71.9346096,27.3259543 72.2216096,27.6129543 72.5766096,27.6129543 L76.5946096,27.6129543 C76.9486096,27.6129543 77.2356096,27.3259543 77.2356096,26.9719543 L77.2356096,15.9019543 C77.2356096,15.3829543 77.3336096,14.8949543 77.5326096,14.4379543 C77.7296096,13.9809543 78.0076096,13.5859543 78.3666096,13.2519543 C78.7246096,12.9179543 79.1446096,12.6589543 79.6266096,12.4739543 C80.1086096,12.2889543 80.6336096,12.1959543 81.2026096,12.1959543 C81.9436096,12.1959543 82.5486096,12.3379543 83.0186096,12.6219543 C83.4876096,12.9059543 83.8466096,13.3329543 84.0936096,13.9009543 C84.3406096,14.4699543 84.4636096,15.1979543 84.4636096,16.0869543 L84.4636096,26.9719543 C84.4636096,27.3259543 84.7506096,27.6129543 85.1056096,27.6129543 L89.0856096,27.6129543 C89.4396096,27.6129543 89.7276096,27.3259543 89.7276096,26.9719543 L89.7276096,15.7159543 C89.7276096,13.9619543 89.4736096,12.4789543 88.9676096,11.2689543 C88.4606096,10.0589543 87.7006096,9.15095426 86.6886096,8.54495426 L86.6886096,8.54495426 L86.6866096,8.54295426 Z" id="Path"></path>
                <path d="M93.8326096,0.184954257 L97.8126096,0.184954257 C98.1666096,0.184954257 98.4536096,0.471954257 98.4536096,0.825954257 L98.4536096,26.9699543 C98.4536096,27.3239543 98.1666096,27.6109543 97.8126096,27.6109543 L93.8326096,27.6109543 C93.4786096,27.6109543 93.1906096,27.3239543 93.1906096,26.9689543 L93.1906096,0.825954257 C93.1906096,0.471954257 93.4776096,0.184954257 93.8316096,0.184954257 L93.8316096,0.184954257 L93.8326096,0.184954257 Z" id="Path"></path>
                <path d="M140.56661,23.2749543 L131.97761,23.2749543 L140.81861,11.5869543 C140.90261,11.4759543 140.94861,11.3399543 140.94861,11.1999543 L140.94861,8.64695426 C140.94861,8.29295426 140.66161,8.00595426 140.30661,8.00595426 L125.94861,8.00595426 C125.59461,8.00595426 125.30661,8.29295426 125.30661,8.64695426 L125.30661,11.7009543 C125.30661,12.0549543 125.59361,12.3419543 125.94861,12.3419543 L134.50561,12.3419543 L125.44061,24.1029543 C125.35461,24.2149543 125.30661,24.3529543 125.30661,24.4949543 L125.30661,26.9709543 C125.30661,27.3249543 125.59361,27.6119543 125.94861,27.6119543 L140.56561,27.6119543 C140.91961,27.6119543 141.20761,27.3249543 141.20761,26.9709543 L141.20761,23.9169543 C141.20761,23.5629543 140.92061,23.2759543 140.56561,23.2759543 L140.56561,23.2759543 L140.56661,23.2749543 Z" id="Path"></path>
                <path d="M158.83861,8.00595426 L144.48061,8.00595426 C144.12661,8.00595426 143.83861,8.29295426 143.83861,8.64695426 L143.83861,11.7009543 C143.83861,12.0549543 144.12561,12.3419543 144.48061,12.3419543 L153.03661,12.3419543 L143.97161,24.1029543 C143.88561,24.2149543 143.83861,24.3529543 143.83861,24.4949543 L143.83861,26.9709543 C143.83861,27.3249543 144.12561,27.6119543 144.48061,27.6119543 L157.10361,27.6119543 C157.45861,27.6119543 157.74561,27.3239543 157.74561,26.9699543 L157.74061,23.9159543 C157.74061,23.5619543 157.45361,23.2759543 157.09861,23.2759543 L150.50861,23.2759543 L159.34961,11.5879543 C159.43361,11.4769543 159.47961,11.3409543 159.47961,11.2009543 L159.47961,8.64795426 C159.47961,8.29395426 159.19261,8.00695426 158.83761,8.00695426 L158.83761,8.00695426 L158.83861,8.00595426 Z" id="Path"></path>
                <path d="M162.85661,21.7559543 C161.96661,21.7559543 161.24361,22.0469543 160.68861,22.6269543 C160.13261,23.2079543 159.85461,23.9549543 159.85461,24.8689543 C159.85461,25.8819543 160.11361,26.6609543 160.63261,27.2039543 C161.15161,27.7469543 161.89261,28.0199543 162.85661,28.0199543 C163.74561,28.0199543 164.46161,27.7289543 165.00661,27.1489543 C165.54961,26.5689543 165.82161,25.8089543 165.82161,24.8699543 C165.82161,23.8819543 165.56261,23.1159543 165.04361,22.5719543 C164.52461,22.0289543 163.79561,21.7559543 162.85761,21.7559543 L162.85761,21.7559543 L162.85661,21.7559543 Z" id="Path"></path>
                <path d="M182.94761,8.48695426 C181.94661,7.89395426 180.70561,7.59695426 179.22261,7.59695426 C178.13461,7.59695426 177.09761,7.81895426 176.10961,8.26395426 C175.12061,8.70895426 174.27561,9.29595426 173.57061,10.0239543 C173.41761,10.1819543 173.27661,10.3449543 173.14461,10.5109543 L173.14461,0.824954257 C173.14461,0.470954257 172.85761,0.183954257 172.50261,0.183954257 L168.59661,0.183954257 C168.24261,0.183954257 167.95461,0.470954257 167.95461,0.824954257 L167.95461,26.9689543 C167.95461,27.3229543 168.24161,27.6099543 168.59661,27.6099543 L172.57661,27.6099543 C172.93061,27.6099543 173.21861,27.3229543 173.21861,26.9689543 L173.21861,15.8249543 C173.21861,15.3059543 173.32361,14.8239543 173.53361,14.3799543 C173.74361,13.9349543 174.02861,13.5409543 174.38561,13.1939543 C174.74361,12.8479543 175.17661,12.5819543 175.68261,12.3969543 C176.18861,12.2119543 176.73861,12.1189543 177.33161,12.1189543 C178.07261,12.0949543 178.69661,12.2179543 179.20361,12.4899543 C179.70961,12.7619543 180.08661,13.1939543 180.33461,13.7869543 C180.58161,14.3799543 180.70561,15.1209543 180.70561,16.0109543 L180.70561,26.9699543 C180.70561,27.3239543 180.99261,27.6109543 181.34761,27.6109543 L185.32761,27.6109543 C185.68161,27.6109543 185.96961,27.3239543 185.96961,26.9699543 L185.96961,15.6029543 C185.96961,13.8489543 185.71561,12.3729543 185.20961,11.1739543 C184.70261,9.97595426 183.94961,9.07995426 182.94861,8.48695426 L182.94761,8.48695426 L182.94761,8.48695426 Z" id="Path"></path>
                <path d="M207.00361,8.00595426 L202.45461,8.00595426 C202.25761,8.00595426 202.09761,8.16595426 202.09761,8.36295426 L202.09761,19.7549543 C202.09761,20.2989543 201.99861,20.8049543 201.80061,21.2739543 C201.60261,21.7439543 201.32461,22.1509543 200.96661,22.4969543 C200.60861,22.8429543 200.18861,23.1089543 199.70661,23.2939543 C199.22461,23.4789543 198.69961,23.5719543 198.13161,23.5719543 C197.34061,23.5719543 196.67361,23.3999543 196.12961,23.0529543 C195.58561,22.7069543 195.16661,22.2069543 194.86961,21.5519543 C194.57261,20.8969543 194.42461,20.1249543 194.42461,19.2359543 L194.42461,8.36295426 C194.42461,8.16595426 194.26461,8.00595426 194.06861,8.00595426 L189.51861,8.00595426 C189.32161,8.00595426 189.16261,8.16595426 189.16261,8.36295426 L189.16261,20.0889543 C189.16261,21.7449543 189.44061,23.1589543 189.99661,24.3329543 C190.55261,25.5069543 191.34261,26.4089543 192.36861,27.0389543 C193.39361,27.6689543 194.62361,27.9839543 196.05661,27.9839543 C197.16861,27.9839543 198.20661,27.7739543 199.16961,27.3539543 C200.13261,26.9339543 200.96061,26.3529543 201.65261,25.6119543 C201.86561,25.3839543 202.05661,25.1469543 202.23261,24.9029543 L202.34161,27.2739543 C202.35061,27.4649543 202.50761,27.6139543 202.69761,27.6139543 L207.00361,27.6139543 C207.20061,27.6139543 207.36061,27.4539543 207.36061,27.2569543 L207.36061,8.36395426 C207.36061,8.16695426 207.20061,8.00695426 207.00361,8.00695426 L207.00361,8.00695426 L207.00361,8.00595426 Z" id="Path"></path>
                <path d="M108.27261,5.58295426 L117.37861,4.39195426 C117.53361,4.36695426 117.64761,4.23495426 117.64861,4.07795426 L117.681623,0.323954257 C117.68361,0.100954257 117.46261,-0.0560457426 117.25261,0.0189542574 L108.11361,2.70195426 C107.99261,2.74595426 107.90961,2.85695426 107.90161,2.98495426 L107.90161,5.24795426 C107.88961,5.45295426 108.06961,5.61595426 108.27261,5.58395426 L108.27261,5.58395426 L108.27261,5.58295426 Z" id="Path"></path>
                <path d="M42.4236096,5.58295426 L51.5296096,4.39195426 C51.6846096,4.36695426 51.7976096,4.23495426 51.7996096,4.07795426 L51.8326231,0.323954257 C51.8346096,0.100954257 51.6136096,-0.0560457426 51.4036096,0.0189542574 L42.2646096,2.70195426 C42.1436096,2.74595426 42.0596096,2.85695426 42.0526096,2.98495426 L42.0526096,5.24795426 C42.0406096,5.45295426 42.2206096,5.61595426 42.4236096,5.58395426 L42.4236096,5.58395426 L42.4236096,5.58295426 Z" id="Path"></path>
                <path d="M121.18861,8.04295426 L117.24461,8.04295426 C116.89061,8.04295426 116.60261,8.32995426 116.60261,8.68395426 L116.60261,10.6209543 C116.22661,10.1069543 115.79161,9.64095426 115.28761,9.22895426 C114.68161,8.73495426 113.97761,8.34595426 113.17461,8.06195426 C112.37161,7.77795426 111.48861,7.63595426 110.52461,7.63595426 C108.82061,7.63595426 107.30061,8.06795426 105.96561,8.93295426 C104.63161,9.79795426 103.57561,10.9959543 102.79661,12.5279543 C102.01861,14.0599543 101.62961,15.8139543 101.62961,17.7909543 C101.62961,19.7679543 102.01161,21.5219543 102.77861,23.0539543 C103.54361,24.5859543 104.58161,25.7969543 105.89161,26.6859543 C107.20161,27.5759543 108.67161,28.0199543 110.30261,28.0199543 C111.21661,28.0199543 112.08161,27.8779543 112.89761,27.5939543 C113.71261,27.3099543 114.44761,26.9269543 115.10261,26.4449543 C115.65461,26.0389543 116.12661,25.5819543 116.52961,25.0789543 L116.52961,27.0079543 C116.52961,27.3619543 116.81661,27.6489543 117.17161,27.6489543 L121.18961,27.6489543 C121.54361,27.6489543 121.83061,27.3619543 121.83061,27.0079543 L121.83061,8.68395426 C121.83061,8.32995426 121.54361,8.04295426 121.18961,8.04295426 L121.18961,8.04295426 L121.18861,8.04295426 Z M116.06661,20.7739543 C115.65861,21.6259543 115.08461,22.2879543 114.34361,22.7569543 C113.60161,23.2269543 112.73761,23.4609543 111.74861,23.4609543 C110.78561,23.4609543 109.93861,23.2259543 109.20961,22.7569543 C108.48061,22.2879543 107.90661,21.6259543 107.48661,20.7739543 C107.06561,19.9219543 106.85661,18.9269543 106.85661,17.7909543 C106.85661,16.6789543 107.06561,15.7029543 107.48661,14.8629543 C107.90661,14.0229543 108.48061,13.3619543 109.20961,12.8799543 C109.93761,12.3979543 110.78461,12.1569543 111.74861,12.1569543 C112.73661,12.1569543 113.60161,12.3979543 114.34361,12.8799543 C115.08561,13.3619543 115.65861,14.0229543 116.06661,14.8629543 C116.47461,15.7029543 116.67861,16.6789543 116.67861,17.7909543 C116.67861,18.9279543 116.47461,19.9219543 116.06661,20.7739543 Z" id="Shape"></path>
            </g>
            <g id="Group-2" transform="translate(78.770000, 47.095000)" fill="#FFFFFF">
                <path d="M82.882,20.729 L82.882,92.602 C82.882,94.411 81.415,95.878 79.606,95.878 L19.144,95.878 L18.788,99.944 C18.632,101.729 19.939,103.308 21.722,103.488 L86.887,110.07 C88.7,110.253 90.314,108.921 90.478,107.106 L97.866,25.338 C98.029,23.533 96.695,21.938 94.889,21.78 L82.881,20.73 L82.881,20.73 L82.882,20.729 Z" id="Path"></path>
                <path d="M0,3.275 L0,85.558 C0,87.367 1.467,88.834 3.275,88.834 L72.562,88.834 C74.371,88.834 75.838,87.367 75.838,85.558 L75.838,3.275 C75.838,1.466 74.371,0 72.562,0 L3.275,0 C1.466,0 0,1.467 0,3.275 L0,3.275 Z M45.873,35.214 C45.873,36.665 44.697,37.841 43.246,37.841 L13.771,37.841 C12.32,37.841 11.144,36.665 11.144,35.214 L11.144,33.337 C11.144,31.886 12.32,30.71 13.771,30.71 L43.246,30.71 C44.697,30.71 45.873,31.886 45.873,33.337 L45.873,35.214 L45.873,35.214 Z M64.779,18.23 C64.779,19.681 63.603,20.857 62.152,20.857 L13.486,20.857 C12.035,20.857 10.859,19.681 10.859,18.23 L10.859,16.353 C10.859,14.902 12.035,13.726 13.486,13.726 L62.152,13.726 C63.603,13.726 64.779,14.902 64.779,16.353 L64.779,18.23 Z" id="Shape"></path>
            </g>
        </g>
    </g>
</svg>